<svg width="23" height="17" viewBox="0 0 23 17" fill="none" xmlns="http://www.w3.org/2000/svg">
<path d="M11.1333 10.9275C11.7389 10.9275 12.3196 10.6859 12.7478 10.2558C13.176 9.8257 13.4166 9.24238 13.4166 8.63415C13.4166 8.02592 13.176 7.44261 12.7478 7.01252C12.3196 6.58244 11.7389 6.34082 11.1333 6.34082C10.5278 6.34082 9.94703 6.58244 9.51884 7.01252C9.09065 7.44261 8.8501 8.02592 8.8501 8.63415C8.8501 9.24238 9.09065 9.8257 9.51884 10.2558C9.94703 10.6859 10.5278 10.9275 11.1333 10.9275Z" fill="#B4B9CA"/>
<path fill-rule="evenodd" clip-rule="evenodd" d="M0.23999 8.63409C1.69441 3.98206 6.02115 0.607422 11.1333 0.607422C16.2455 0.607422 20.5722 3.98206 22.0267 8.63409C20.5722 13.2861 16.2455 16.6608 11.1333 16.6608C6.02115 16.6608 1.69441 13.2861 0.23999 8.63409ZM15.6998 8.63409C15.6998 9.85055 15.2187 11.0172 14.3623 11.8774C13.5059 12.7375 12.3444 13.2208 11.1333 13.2208C9.92222 13.2208 8.76072 12.7375 7.90434 11.8774C7.04796 11.0172 6.56685 9.85055 6.56685 8.63409C6.56685 7.41763 7.04796 6.25099 7.90434 5.39083C8.76072 4.53066 9.92222 4.04742 11.1333 4.04742C12.3444 4.04742 13.5059 4.53066 14.3623 5.39083C15.2187 6.25099 15.6998 7.41763 15.6998 8.63409Z" fill="#B4B9CA"/>
</svg>
