<svg width="24" height="24" viewBox="0 0 24 24" fill="none" xmlns="http://www.w3.org/2000/svg">
<path d="M5 8.4C5 6.15016 5 5.02524 5.57295 4.23664C5.75799 3.98196 5.98196 3.75799 6.23664 3.57295C7.02524 3 8.15016 3 10.4 3H13.6C15.8498 3 16.9748 3 17.7634 3.57295C18.018 3.75799 18.242 3.98196 18.4271 4.23664C19 5.02524 19 6.15016 19 8.4V16.8219C19 18.4743 19 19.3005 18.8416 19.6744C18.3545 20.8247 16.9437 21.2519 15.9003 20.565C15.5611 20.3417 15.1028 19.6543 14.1862 18.2794V18.2794C13.7232 17.5848 13.4917 17.2375 13.2489 17.0434C12.5186 16.4596 11.4814 16.4596 10.7511 17.0434C10.5083 17.2375 10.2768 17.5848 9.81376 18.2794V18.2794C8.89716 19.6543 8.43886 20.3417 8.0997 20.565C7.05628 21.2519 5.64552 20.8247 5.15836 19.6744C5 19.3005 5 18.4743 5 16.8219V8.4Z" stroke="black" stroke-width="1.5" stroke-linejoin="round"/>
</svg>
