<svg width="24" height="24" viewBox="0 0 24 24" fill="none" xmlns="http://www.w3.org/2000/svg">
<path d="M3 4C3 3.44772 3.44772 3 4 3H9.5C10.0523 3 10.5 3.44772 10.5 4V9.5C10.5 10.0523 10.0523 10.5 9.5 10.5H4C3.44772 10.5 3 10.0523 3 9.5V4Z" stroke="black" stroke-width="1.5" stroke-linejoin="round"/>
<path d="M3 14.5C3 13.9477 3.44772 13.5 4 13.5H9.5C10.0523 13.5 10.5 13.9477 10.5 14.5V20C10.5 20.5523 10.0523 21 9.5 21H4C3.44772 21 3 20.5523 3 20V14.5Z" stroke="black" stroke-width="1.5" stroke-linejoin="round"/>
<path d="M13.5 4C13.5 3.44772 13.9477 3 14.5 3H20C20.5523 3 21 3.44772 21 4V9.5C21 10.0523 20.5523 10.5 20 10.5H14.5C13.9477 10.5 13.5 10.0523 13.5 9.5V4Z" stroke="black" stroke-width="1.5" stroke-linejoin="round"/>
<path d="M13.5 14.5C13.5 13.9477 13.9477 13.5 14.5 13.5H20C20.5523 13.5 21 13.9477 21 14.5V20C21 20.5523 20.5523 21 20 21H14.5C13.9477 21 13.5 20.5523 13.5 20V14.5Z" stroke="black" stroke-width="1.5" stroke-linejoin="round"/>
</svg>
