<svg width="92" height="35" viewBox="0 0 92 35" fill="none" xmlns="http://www.w3.org/2000/svg">
<path d="M14.2431 0L0 9.35678V13.4114L14.2431 4.31451L28.3302 13.4114V9.35678L14.2431 0Z" fill="white"/>
<path d="M0 17.1021L14.2431 7.64137L28.3302 17.1021V21.1567L14.2431 11.592L3.53478 18.9215V30.4095H28.3302V34.0483H0V17.1021Z" fill="white"/>
<path d="M33.6901 21.248V19.5712C34.065 19.6181 34.3361 19.5645 34.5034 19.4106C34.6774 19.2499 34.7645 18.9219 34.7645 18.4266V14.2195H39.7648V21.248H37.9675V15.9565H36.5618V18.5069C36.5618 19.0826 36.4781 19.5712 36.3108 19.9729C36.1501 20.3678 35.9259 20.659 35.638 20.8464C35.3569 21.0338 35.0556 21.1577 34.7343 21.2179C34.413 21.2782 34.065 21.2882 33.6901 21.248ZM44.7454 21.248V17.7137L42.2654 21.248H40.8697V14.2195H42.667V17.7538L45.1471 14.2195H46.5327V21.248H44.7454ZM51.8022 14.2195V15.9565H49.4426V21.248H47.6453V14.2195H51.8022ZM55.8941 21.248L55.5929 20.2339H53.2534L52.9522 21.248H51.0042L53.3237 14.2195H55.5126L57.832 21.248H55.8941ZM53.7153 18.6876H55.131L54.4181 16.2979L53.7153 18.6876ZM61.8774 21.3685C60.8131 21.3685 59.9329 21.0171 59.2367 20.3143C58.5405 19.6114 58.1925 18.7512 58.1925 17.7338C58.1925 16.7163 58.5405 15.8561 59.2367 15.1533C59.9329 14.4504 60.8131 14.099 61.8774 14.099C62.5267 14.099 63.1225 14.2563 63.6647 14.5709C64.2069 14.8788 64.6253 15.2972 64.9198 15.826L64.2973 16.1875C64.0764 15.7591 63.7484 15.4177 63.3133 15.1633C62.8782 14.9089 62.3996 14.7818 61.8774 14.7818C61.0005 14.7818 60.2843 15.0662 59.7287 15.6352C59.1731 16.2042 58.8953 16.9037 58.8953 17.7338C58.8953 18.5638 59.1731 19.2633 59.7287 19.8323C60.2843 20.4013 61.0005 20.6858 61.8774 20.6858C62.3996 20.6858 62.8782 20.5586 63.3133 20.3042C63.7484 20.0498 64.0764 19.7085 64.2973 19.28L64.9198 19.6315C64.632 20.1603 64.2136 20.582 63.6647 20.8966C63.1225 21.2112 62.5267 21.3685 61.8774 21.3685ZM70.3956 14.2195V14.8822H68.2368V21.248H67.534V14.8822H65.3752V14.2195H70.3956ZM73.9103 14.2195C74.5395 14.2195 75.065 14.4303 75.4867 14.852C75.9084 15.2738 76.1192 15.7992 76.1192 16.4285C76.1192 17.0577 75.9084 17.5831 75.4867 18.0049C75.065 18.4266 74.5395 18.6374 73.9103 18.6374H72.1029V21.248H71.4001V14.2195H73.9103ZM73.9103 17.9747C74.3454 17.9747 74.7035 17.8308 74.9846 17.543C75.2725 17.2485 75.4164 16.8769 75.4164 16.4285C75.4164 15.98 75.2725 15.6118 74.9846 15.324C74.7035 15.0294 74.3454 14.8822 73.9103 14.8822H72.1029V17.9747H73.9103ZM83.0872 20.3143C82.3843 21.0171 81.5242 21.3685 80.5067 21.3685C79.4892 21.3685 78.6291 21.0171 77.9262 20.3143C77.2233 19.6047 76.8719 18.7445 76.8719 17.7338C76.8719 16.723 77.2233 15.8662 77.9262 15.1633C78.6291 14.4538 79.4892 14.099 80.5067 14.099C81.5242 14.099 82.3843 14.4538 83.0872 15.1633C83.79 15.8662 84.1415 16.723 84.1415 17.7338C84.1415 18.7445 83.79 19.6047 83.0872 20.3143ZM78.4182 19.8323C78.9805 20.4013 79.6767 20.6858 80.5067 20.6858C81.3367 20.6858 82.0329 20.4013 82.5952 19.8323C83.1575 19.2566 83.4386 18.5571 83.4386 17.7338C83.4386 16.9104 83.1575 16.2142 82.5952 15.6453C82.0329 15.0696 81.3367 14.7818 80.5067 14.7818C79.6767 14.7818 78.9805 15.0696 78.4182 15.6453C77.8559 16.2142 77.5748 16.9104 77.5748 17.7338C77.5748 18.5571 77.8559 19.2566 78.4182 19.8323ZM86.6488 13.4162V12.8338H89.2594V13.4162H86.6488ZM89.8618 21.248V15.5248L85.9459 21.248H85.3435V14.2195H86.0463V19.9427L89.9623 14.2195H90.5647V21.248H89.8618Z" fill="white"/>
<path d="M35.3589 27.78C34.9315 27.78 34.576 27.6382 34.2923 27.3545C34.0087 27.067 33.8668 26.7134 33.8668 26.2936C33.8668 25.8738 34.0087 25.522 34.2923 25.2384C34.576 24.9509 34.9315 24.8072 35.3589 24.8072C35.6388 24.8072 35.8903 24.8753 36.1134 25.0114C36.3366 25.1438 36.4992 25.3235 36.6014 25.5504L36.295 25.7263C36.2193 25.5561 36.0964 25.4218 35.9262 25.3235C35.7598 25.2213 35.5707 25.1703 35.3589 25.1703C35.045 25.1703 34.7802 25.28 34.5646 25.4993C34.3491 25.7149 34.2413 25.9797 34.2413 26.2936C34.2413 26.6075 34.3491 26.8742 34.5646 27.0935C34.7802 27.3091 35.045 27.4169 35.3589 27.4169C35.5707 27.4169 35.7598 27.3677 35.9262 27.2694C36.0926 27.1673 36.2231 27.0311 36.3177 26.8609L36.6297 27.0425C36.5125 27.2694 36.3404 27.4491 36.1134 27.5814C35.8865 27.7138 35.635 27.78 35.3589 27.78ZM39.1543 24.8753V25.2384H38.1501V27.7119H37.7757V25.2384H36.7715V24.8753H39.1543ZM41.131 24.8072C41.5357 24.8072 41.8799 24.9509 42.1636 25.2384C42.451 25.5258 42.5947 25.8776 42.5947 26.2936C42.5947 26.7096 42.451 27.0614 42.1636 27.3488C41.8799 27.6363 41.5357 27.78 41.131 27.78C40.628 27.78 40.246 27.572 39.985 27.1559V28.8466H39.6106V24.8753H39.985V25.4313C40.246 25.0152 40.628 24.8072 41.131 24.8072ZM40.3084 27.0935C40.524 27.3091 40.7887 27.4169 41.1027 27.4169C41.4166 27.4169 41.6813 27.3091 41.8969 27.0935C42.1125 26.8742 42.2203 26.6075 42.2203 26.2936C42.2203 25.9797 42.1125 25.7149 41.8969 25.4993C41.6813 25.28 41.4166 25.1703 41.1027 25.1703C40.7887 25.1703 40.524 25.28 40.3084 25.4993C40.0928 25.7149 39.985 25.9797 39.985 26.2936C39.985 26.6075 40.0928 26.8742 40.3084 27.0935ZM45.5944 27.3545C45.307 27.6382 44.9553 27.78 44.5392 27.78C44.1232 27.78 43.7695 27.6382 43.4783 27.3545C43.1909 27.067 43.0471 26.7134 43.0471 26.2936C43.0471 25.8738 43.1909 25.522 43.4783 25.2384C43.7695 24.9509 44.1232 24.8072 44.5392 24.8072C44.9553 24.8072 45.307 24.9509 45.5944 25.2384C45.8857 25.522 46.0313 25.8738 46.0313 26.2936C46.0313 26.7134 45.8857 27.067 45.5944 27.3545ZM43.745 27.0935C43.9605 27.3091 44.2253 27.4169 44.5392 27.4169C44.8531 27.4169 45.1179 27.3091 45.3335 27.0935C45.5491 26.8742 45.6569 26.6075 45.6569 26.2936C45.6569 25.9797 45.5491 25.7149 45.3335 25.4993C45.1179 25.28 44.8531 25.1703 44.5392 25.1703C44.2253 25.1703 43.9605 25.28 43.745 25.4993C43.5294 25.7149 43.4216 25.9797 43.4216 26.2936C43.4216 26.6075 43.5294 26.8742 43.745 27.0935ZM48.723 24.8753H49.0407V27.7119H48.6662V25.5277L46.9756 27.7119H46.6579V24.8753H47.0323V27.0595L48.723 24.8753ZM51.8749 24.8753V25.2384H50.8707V27.7119H50.4963V25.2384H49.4921V24.8753H51.8749ZM53.5309 24.8072C53.9507 24.8072 54.2892 24.9566 54.5464 25.2554C54.8074 25.5504 54.9379 25.9002 54.9379 26.3049C54.9379 26.3465 54.9341 26.4052 54.9265 26.4808H52.4359C52.4738 26.7683 52.5948 26.9971 52.799 27.1673C53.0071 27.3337 53.2624 27.4169 53.5649 27.4169C53.7805 27.4169 53.9658 27.3734 54.1209 27.2864C54.2798 27.1956 54.3989 27.0784 54.4783 26.9347L54.8074 27.1276C54.6826 27.328 54.5124 27.4869 54.2968 27.6041C54.0812 27.7214 53.8354 27.78 53.5593 27.78C53.113 27.78 52.7499 27.6401 52.47 27.3602C52.1901 27.0803 52.0502 26.7248 52.0502 26.2936C52.0502 25.87 52.1882 25.5164 52.4643 25.2327C52.7404 24.949 53.0959 24.8072 53.5309 24.8072ZM53.5309 25.1703C53.2359 25.1703 52.9881 25.2592 52.7877 25.4369C52.591 25.6109 52.4738 25.8378 52.4359 26.1177H54.5521C54.5143 25.8189 54.3989 25.5863 54.206 25.4199C54.0131 25.2535 53.7881 25.1703 53.5309 25.1703ZM57.7487 24.8753V27.7119H57.3743V25.2384H56.0921V26.5035C56.0921 26.9763 56.0013 27.3015 55.8198 27.4793C55.642 27.6571 55.3962 27.7346 55.0823 27.7119V27.3602C55.2979 27.3829 55.4567 27.3318 55.5588 27.207C55.6647 27.0822 55.7177 26.8477 55.7177 26.5035V24.8753H57.7487ZM59.6935 25.9532C59.9583 25.9532 60.1815 26.0364 60.363 26.2028C60.5483 26.3655 60.641 26.5754 60.641 26.8326C60.641 27.0897 60.5483 27.3015 60.363 27.468C60.1815 27.6306 59.9583 27.7119 59.6935 27.7119H58.5419V24.8753H58.9163V25.9532H59.6935ZM59.6935 27.3488C59.8524 27.3488 59.9867 27.3015 60.0964 27.207C60.2098 27.1124 60.2666 26.9876 60.2666 26.8326C60.2666 26.6775 60.2098 26.5527 60.0964 26.4581C59.9867 26.3636 59.8524 26.3163 59.6935 26.3163H58.9163V27.3488H59.6935ZM63.2151 24.8753H63.5895V27.7119H63.2151V26.4751H61.5812V27.7119H61.2068V24.8753H61.5812V26.112H63.2151V24.8753ZM66.8209 24.8753H67.1953V27.7119H66.8209V27.1559C66.5599 27.572 66.1779 27.78 65.6749 27.78C65.2702 27.78 64.9241 27.6363 64.6367 27.3488C64.353 27.0614 64.2112 26.7096 64.2112 26.2936C64.2112 25.8776 64.353 25.5258 64.6367 25.2384C64.9241 24.9509 65.2702 24.8072 65.6749 24.8072C66.1779 24.8072 66.5599 25.0152 66.8209 25.4313V24.8753ZM64.909 27.0935C65.1246 27.3091 65.3893 27.4169 65.7032 27.4169C66.0172 27.4169 66.2819 27.3091 66.4975 27.0935C66.7131 26.8742 66.8209 26.6075 66.8209 26.2936C66.8209 25.9797 66.7131 25.7149 66.4975 25.4993C66.2819 25.28 66.0172 25.1703 65.7032 25.1703C65.3893 25.1703 65.1246 25.28 64.909 25.4993C64.6934 25.7149 64.5856 25.9797 64.5856 26.2936C64.5856 26.6075 64.6934 26.8742 64.909 27.0935ZM70.0305 24.8753V27.7119H69.6561V26.6226H69.1682L68.2945 27.7119H67.8179L68.7143 26.6113C68.4874 26.5773 68.3002 26.4827 68.1526 26.3276C68.0051 26.1726 67.9314 25.9816 67.9314 25.7546C67.9314 25.4974 68.0222 25.2875 68.2037 25.1249C68.389 24.9585 68.6141 24.8753 68.8788 24.8753H70.0305ZM68.8788 26.2709H69.6561V25.2384H68.8788C68.72 25.2384 68.5838 25.2856 68.4704 25.3802C68.3607 25.4747 68.3058 25.5996 68.3058 25.7546C68.3058 25.9097 68.3607 26.0345 68.4704 26.1291C68.5838 26.2236 68.72 26.2709 68.8788 26.2709ZM36.329 32.7119H35.8298L34.4115 31.3447V32.7119H34.037V29.8753H34.4115V31.1291L35.7617 29.8753H36.2723L34.8086 31.2369L36.329 32.7119ZM38.935 32.3545C38.6475 32.6382 38.2958 32.78 37.8797 32.78C37.4637 32.78 37.1101 32.6382 36.8188 32.3545C36.5314 32.067 36.3877 31.7134 36.3877 31.2936C36.3877 30.8738 36.5314 30.522 36.8188 30.2384C37.1101 29.9509 37.4637 29.8072 37.8797 29.8072C38.2958 29.8072 38.6475 29.9509 38.935 30.2384C39.2262 30.522 39.3718 30.8738 39.3718 31.2936C39.3718 31.7134 39.2262 32.067 38.935 32.3545ZM37.0855 32.0935C37.3011 32.3091 37.5658 32.4169 37.8797 32.4169C38.1937 32.4169 38.4584 32.3091 38.674 32.0935C38.8896 31.8742 38.9974 31.6075 38.9974 31.2936C38.9974 30.9797 38.8896 30.7149 38.674 30.4993C38.4584 30.28 38.1937 30.1703 37.8797 30.1703C37.5658 30.1703 37.3011 30.28 37.0855 30.4993C36.8699 30.7149 36.7621 30.9797 36.7621 31.2936C36.7621 31.6075 36.8699 31.8742 37.0855 32.0935ZM42.7783 29.8753V32.7119H42.4039V30.4483L41.4111 32.0595H41.3657L40.3728 30.4483V32.7119H39.9984V29.8753H40.4296L41.3884 31.4298L42.3472 29.8753H42.7783ZM45.9547 29.8753V32.7119H45.5803V30.2384H43.9464V32.7119H43.5719V29.8753H45.9547ZM49.186 29.8753H49.5605V32.7119H49.186V32.1559C48.9251 32.572 48.5431 32.78 48.04 32.78C47.6353 32.78 47.2893 32.6363 47.0018 32.3488C46.7182 32.0614 46.5763 31.7096 46.5763 31.2936C46.5763 30.8776 46.7182 30.5258 47.0018 30.2384C47.2893 29.9509 47.6353 29.8072 48.04 29.8072C48.5431 29.8072 48.9251 30.0152 49.186 30.4313V29.8753ZM47.2741 32.0935C47.4897 32.3091 47.7545 32.4169 48.0684 32.4169C48.3823 32.4169 48.6471 32.3091 48.8627 32.0935C49.0782 31.8742 49.186 31.6075 49.186 31.2936C49.186 30.9797 49.0782 30.7149 48.8627 30.4993C48.6471 30.28 48.3823 30.1703 48.0684 30.1703C47.7545 30.1703 47.4897 30.28 47.2741 30.4993C47.0586 30.7149 46.9508 30.9797 46.9508 31.2936C46.9508 31.6075 47.0586 31.8742 47.2741 32.0935ZM52.3616 29.8753H52.7361V32.7119H52.3616V31.4751H50.7277V32.7119H50.3533V29.8753H50.7277V31.112H52.3616V29.8753ZM55.593 29.8753H55.9107V32.7119H55.5362V30.5277L53.8456 32.7119H53.5279V29.8753H53.9023V32.0595L55.593 29.8753ZM58.7449 29.8753V32.7119H58.3704V31.6226H57.8825L57.0088 32.7119H56.5323L57.4287 31.6113C57.2017 31.5773 57.0145 31.4827 56.867 31.3276C56.7195 31.1726 56.6458 30.9816 56.6458 30.7546C56.6458 30.4974 56.7365 30.2875 56.9181 30.1249C57.1034 29.9585 57.3284 29.8753 57.5932 29.8753H58.7449ZM57.5932 31.2709H58.3704V30.2384H57.5932C57.4343 30.2384 57.2982 30.2856 57.1847 30.3802C57.075 30.4747 57.0202 30.5996 57.0202 30.7546C57.0202 30.9097 57.075 31.0345 57.1847 31.1291C57.2982 31.2236 57.4343 31.2709 57.5932 31.2709Z" fill="white"/>
</svg>
